# xmcd
#
# Track frame offsets: 
#        150
#        16639
#        49748
#        68754
#        92922
#        137463
#        158494
#        177654
#        198806
#        236637
#
# Disc length: 3733 seconds
#
# Revision: 0
# Processed by: cddbd v1.5.2PL0 Copyright (c) Steve Scherf et al.
# Submitted via: ExactAudioCopy v0.99pb5
#
DISCID=770e930a
DTITLE=Henrik Freischlader Band - The Soul Of HFB
DYEAR=2012
DGENRE=Blues
TTITLE0=Sometimes
TTITLE1=When I First Saw You
TTITLE2=Get Closer
TTITLE3=My Baby
TTITLE4=Dirty Low Down And Bad
TTITLE5=I Loved Another Woman
TTITLE6=No Questions
TTITLE7=I Give Up On Loving You
TTITLE8=Lonely World
TTITLE9=She's back (For Another Try)
EXTD=
EXTT0=
EXTT1=
EXTT2=
EXTT3=
EXTT4=
EXTT5=
EXTT6=
EXTT7=
EXTT8=
EXTT9=
PLAYORDER=
